<?xml version="1.0" standalone="no"?>
<svg xmlns:xlink="http://www.w3.org/1999/xlink" id="wave" style="transform:rotate(0deg); transition: 0.3s" viewBox="0 0 1440 420" version="1.1" xmlns="http://www.w3.org/2000/svg"><defs><linearGradient id="sw-gradient-0" x1="0" x2="0" y1="1" y2="0"><stop stop-color="rgba(255, 255, 255, 1)" offset="0%"/><stop stop-color="rgba(132, 217, 188, 1)" offset="100%"/></linearGradient></defs><path style="transform:translate(0, 0px); opacity:1" fill="url(#sw-gradient-0)" d="M0,42L26.7,77C53.3,112,107,182,160,210C213.3,238,267,224,320,189C373.3,154,427,98,480,119C533.3,140,587,238,640,231C693.3,224,747,112,800,112C853.3,112,907,224,960,245C1013.3,266,1067,196,1120,140C1173.3,84,1227,42,1280,28C1333.3,14,1387,28,1440,28C1493.3,28,1547,14,1600,14C1653.3,14,1707,28,1760,28C1813.3,28,1867,14,1920,35C1973.3,56,2027,112,2080,126C2133.3,140,2187,112,2240,147C2293.3,182,2347,280,2400,315C2453.3,350,2507,322,2560,322C2613.3,322,2667,350,2720,308C2773.3,266,2827,154,2880,112C2933.3,70,2987,98,3040,126C3093.3,154,3147,182,3200,196C3253.3,210,3307,210,3360,203C3413.3,196,3467,182,3520,147C3573.3,112,3627,56,3680,63C3733.3,70,3787,140,3813,175L3840,210L3840,420L3813.3,420C3786.7,420,3733,420,3680,420C3626.7,420,3573,420,3520,420C3466.7,420,3413,420,3360,420C3306.7,420,3253,420,3200,420C3146.7,420,3093,420,3040,420C2986.7,420,2933,420,2880,420C2826.7,420,2773,420,2720,420C2666.7,420,2613,420,2560,420C2506.7,420,2453,420,2400,420C2346.7,420,2293,420,2240,420C2186.7,420,2133,420,2080,420C2026.7,420,1973,420,1920,420C1866.7,420,1813,420,1760,420C1706.7,420,1653,420,1600,420C1546.7,420,1493,420,1440,420C1386.7,420,1333,420,1280,420C1226.7,420,1173,420,1120,420C1066.7,420,1013,420,960,420C906.7,420,853,420,800,420C746.7,420,693,420,640,420C586.7,420,533,420,480,420C426.7,420,373,420,320,420C266.7,420,213,420,160,420C106.7,420,53,420,27,420L0,420Z"/><defs><linearGradient id="sw-gradient-1" x1="0" x2="0" y1="1" y2="0"><stop stop-color="rgba(255, 255, 255, 1)" offset="0%"/><stop stop-color="rgba(255, 248, 247, 0.6313725490196078)" offset="100%"/></linearGradient></defs><path style="transform:translate(0, 50px); opacity:0.9" fill="url(#sw-gradient-1)" d="M0,210L26.7,189C53.3,168,107,126,160,112C213.3,98,267,112,320,161C373.3,210,427,294,480,294C533.3,294,587,210,640,147C693.3,84,747,42,800,84C853.3,126,907,252,960,287C1013.3,322,1067,266,1120,217C1173.3,168,1227,126,1280,140C1333.3,154,1387,224,1440,238C1493.3,252,1547,210,1600,182C1653.3,154,1707,140,1760,133C1813.3,126,1867,126,1920,147C1973.3,168,2027,210,2080,203C2133.3,196,2187,140,2240,133C2293.3,126,2347,168,2400,182C2453.3,196,2507,182,2560,182C2613.3,182,2667,196,2720,168C2773.3,140,2827,70,2880,35C2933.3,0,2987,0,3040,56C3093.3,112,3147,224,3200,224C3253.3,224,3307,112,3360,91C3413.3,70,3467,140,3520,168C3573.3,196,3627,182,3680,210C3733.3,238,3787,308,3813,343L3840,378L3840,420L3813.3,420C3786.7,420,3733,420,3680,420C3626.7,420,3573,420,3520,420C3466.7,420,3413,420,3360,420C3306.7,420,3253,420,3200,420C3146.7,420,3093,420,3040,420C2986.7,420,2933,420,2880,420C2826.7,420,2773,420,2720,420C2666.7,420,2613,420,2560,420C2506.7,420,2453,420,2400,420C2346.7,420,2293,420,2240,420C2186.7,420,2133,420,2080,420C2026.7,420,1973,420,1920,420C1866.7,420,1813,420,1760,420C1706.7,420,1653,420,1600,420C1546.7,420,1493,420,1440,420C1386.7,420,1333,420,1280,420C1226.7,420,1173,420,1120,420C1066.7,420,1013,420,960,420C906.7,420,853,420,800,420C746.7,420,693,420,640,420C586.7,420,533,420,480,420C426.7,420,373,420,320,420C266.7,420,213,420,160,420C106.7,420,53,420,27,420L0,420Z"/></svg>